<?xml version="1.0" encoding="UTF-8" ?>
<!DOCTYPE svg PUBLIC "-//W3C//DTD SVG 1.1//EN" "http://www.w3.org/Graphics/SVG/1.1/DTD/svg11.dtd">
<svg width="600pt" height="600pt" viewBox="0 0 600 600" version="1.1" xmlns="http://www.w3.org/2000/svg">
<g id="#1861a1ff">
<path fill="#1861a1" opacity="1.00" d=" M 180.25 104.30 C 223.53 77.72 275.73 66.13 326.19 71.82 C 362.81 75.63 398.32 88.69 429.03 108.95 C 470.84 136.69 503.68 178.07 520.20 225.53 C 503.14 226.12 486.06 225.63 469.00 225.79 C 375.33 225.79 281.67 225.79 188.00 225.79 C 152.58 225.71 117.15 225.95 81.72 225.66 C 99.06 175.37 134.91 131.95 180.25 104.30 M 284.79 111.78 C 274.90 117.12 267.19 125.68 260.68 134.68 C 249.09 151.12 241.07 169.80 234.94 188.88 C 278.95 189.01 322.96 188.92 366.97 188.96 C 361.55 171.66 354.30 154.83 344.53 139.53 C 336.74 127.64 327.06 116.18 313.88 110.16 C 304.66 105.83 293.53 106.71 284.79 111.78 M 201.44 134.52 C 178.08 148.22 157.85 167.04 141.96 188.94 C 160.15 188.91 178.36 189.11 196.55 188.80 C 203.05 165.47 211.74 142.41 225.07 122.06 C 217.21 126.25 209.04 129.86 201.44 134.52 M 377.22 122.40 C 390.18 142.81 398.93 165.62 405.41 188.82 C 423.58 189.09 441.75 188.87 459.92 188.91 C 443.83 166.58 423.05 147.60 399.22 133.78 C 392.12 129.55 384.61 126.09 377.22 122.40 Z" />
<path fill="#1861a1" opacity="1.00" d=" M 81.69 380.58 C 227.89 380.54 374.09 380.48 520.29 380.61 C 508.16 415.19 487.52 446.69 460.92 471.87 C 431.79 499.67 395.27 519.67 356.14 529.21 C 315.31 539.21 271.79 537.89 231.69 525.26 C 162.73 504.07 105.20 448.83 81.69 380.58 M 142.28 417.47 C 149.40 427.87 158.00 437.18 167.08 445.89 C 183.80 461.84 203.62 474.26 224.63 483.75 C 211.68 463.39 203.06 440.59 196.47 417.47 C 178.40 417.32 160.34 417.34 142.28 417.47 M 234.93 417.42 C 240.66 435.05 247.88 452.33 258.12 467.84 C 264.73 477.64 272.53 487.03 282.69 493.30 C 290.60 498.24 300.55 500.61 309.63 497.67 C 322.72 493.63 332.54 483.21 340.53 472.55 C 352.50 455.90 360.72 436.85 366.94 417.39 C 322.94 417.52 278.93 417.45 234.93 417.42 M 405.48 417.46 C 398.85 440.51 390.35 463.29 377.40 483.59 C 410.03 469.33 439.11 446.58 459.68 417.41 C 441.62 417.42 423.55 417.33 405.48 417.46 Z" />
</g>
<g id="#c50000ff">
<path fill="#c50000" opacity="1.00" d=" M 284.79 111.78 C 293.53 106.71 304.66 105.83 313.88 110.16 C 327.06 116.18 336.74 127.64 344.53 139.53 C 354.30 154.83 361.55 171.66 366.97 188.96 C 322.96 188.92 278.95 189.01 234.94 188.88 C 241.07 169.80 249.09 151.12 260.68 134.68 C 267.19 125.68 274.90 117.12 284.79 111.78 Z" />
<path fill="#c50000" opacity="1.00" d=" M 201.44 134.52 C 209.04 129.86 217.21 126.25 225.07 122.06 C 211.74 142.41 203.05 165.47 196.55 188.80 C 178.36 189.11 160.15 188.91 141.96 188.94 C 157.85 167.04 178.08 148.22 201.44 134.52 Z" />
<path fill="#c50000" opacity="1.00" d=" M 377.22 122.40 C 384.61 126.09 392.12 129.55 399.22 133.78 C 423.05 147.60 443.83 166.58 459.92 188.91 C 441.75 188.87 423.58 189.09 405.41 188.82 C 398.93 165.62 390.18 142.81 377.22 122.40 Z" />
<path fill="#c50000" opacity="1.00" d=" M 142.28 417.47 C 160.34 417.34 178.40 417.32 196.47 417.47 C 203.06 440.59 211.68 463.39 224.63 483.75 C 203.62 474.26 183.80 461.84 167.08 445.89 C 158.00 437.18 149.40 427.87 142.28 417.47 Z" />
<path fill="#c50000" opacity="1.00" d=" M 234.93 417.42 C 278.93 417.45 322.94 417.52 366.94 417.39 C 360.72 436.85 352.50 455.90 340.53 472.55 C 332.54 483.21 322.72 493.63 309.63 497.67 C 300.55 500.61 290.60 498.24 282.69 493.30 C 272.53 487.03 264.73 477.64 258.12 467.84 C 247.88 452.33 240.66 435.05 234.93 417.42 Z" />
<path fill="#c50000" opacity="1.00" d=" M 405.48 417.46 C 423.55 417.33 441.62 417.42 459.68 417.41 C 439.11 446.58 410.03 469.33 377.40 483.59 C 390.35 463.29 398.85 440.51 405.48 417.46 Z" />
</g>
<g id="#000000ff">
<path fill="#000000" opacity="1.00" d=" M 123.00 244.97 C 136.38 234.31 154.44 231.85 171.03 233.39 C 184.84 234.61 198.54 240.71 207.31 251.70 C 213.95 259.79 217.88 269.82 219.74 280.05 C 206.57 281.53 193.36 282.70 180.18 284.01 C 179.02 278.43 177.78 272.50 173.87 268.13 C 168.37 261.87 157.86 261.35 151.48 266.53 C 147.43 269.91 145.27 274.98 143.94 279.97 C 141.64 289.12 141.55 298.65 141.96 308.01 C 142.52 315.38 143.08 323.30 147.33 329.60 C 153.53 338.52 167.39 340.89 175.86 333.88 C 179.86 330.91 181.46 325.95 181.93 321.18 C 174.54 320.85 167.13 321.16 159.74 320.98 C 159.65 311.66 159.65 302.35 159.73 293.03 C 179.76 292.99 199.79 292.96 219.82 293.04 C 219.81 318.02 219.82 342.99 219.82 367.97 C 213.16 368.10 206.50 368.03 199.85 368.03 C 198.30 363.30 196.55 358.64 194.62 354.05 C 190.88 357.87 187.11 361.81 182.33 364.33 C 171.06 370.50 157.51 371.09 145.08 368.85 C 128.05 365.76 113.27 353.74 105.83 338.25 C 98.92 324.09 97.74 307.83 99.22 292.35 C 101.14 274.47 108.87 256.54 123.00 244.97 Z" />
<path fill="#000000" opacity="1.00" d=" M 241.62 235.00 C 254.60 235.03 267.60 234.73 280.58 235.17 C 295.20 259.30 311.75 282.31 324.89 307.32 C 321.01 283.41 322.55 259.15 322.24 235.05 C 333.38 234.92 344.52 234.88 355.65 235.07 C 355.61 279.36 355.61 323.64 355.65 367.93 C 344.51 368.12 333.37 368.07 322.24 367.96 C 310.06 348.39 297.89 328.81 285.76 309.21 C 280.64 301.08 276.56 292.37 272.22 283.83 C 273.44 290.48 274.86 297.14 274.82 303.94 C 274.82 325.28 274.82 346.62 274.81 367.96 C 263.75 368.10 252.68 368.05 241.62 368.00 C 241.52 323.67 241.52 279.33 241.62 235.00 Z" />
<path fill="#000000" opacity="1.00" d=" M 378.62 235.00 C 398.75 234.91 418.87 234.99 439.00 234.96 C 449.36 234.91 459.98 234.69 469.93 238.05 C 479.41 241.04 487.99 247.46 492.68 256.33 C 496.74 263.96 497.45 272.96 496.29 281.41 C 495.25 288.40 492.68 295.50 487.53 300.53 C 483.47 304.65 478.30 307.37 473.28 310.12 C 481.17 329.43 489.40 348.61 497.19 367.96 C 482.11 368.05 467.03 367.99 451.95 367.99 C 445.33 351.11 438.88 334.16 432.52 317.18 C 428.22 316.94 423.92 316.95 419.63 317.05 C 419.49 334.01 419.57 350.96 419.60 367.92 C 405.94 368.10 392.28 367.98 378.62 367.98 C 378.52 323.66 378.52 279.33 378.62 235.00 M 419.63 263.05 C 419.51 271.69 419.53 280.34 419.62 288.98 C 426.40 288.93 433.19 289.22 439.96 288.82 C 445.13 288.40 450.91 286.20 453.12 281.13 C 454.74 276.74 454.41 271.33 451.42 267.59 C 448.42 264.05 443.49 263.14 439.08 263.05 C 432.59 262.97 426.11 263.05 419.63 263.05 Z" />
</g>
</svg>
